<!DOCTYPE svg PUBLIC "-//W3C//DTD SVG 20010904//EN" "http://www.w3.org/TR/2001/REC-SVG-20010904/DTD/svg10.dtd">
<svg version="1.0" xmlns="http://www.w3.org/2000/svg" width="382px" height="132px" viewBox="0 0 3820 1320" preserveAspectRatio="xMidYMid meet">
<g id="layer101" fill="#070707" stroke="none">
<path d="M0 660 l0 -660 1910 0 1910 0 0 660 0 660 -1910 0 -1910 0 0 -660z"/>
</g>
<g id="layer102" fill="#002b7d" stroke="none">
<path d="M0 660 l0 -660 221 0 c192 0 220 2 209 14 -9 12 10 37 111 140 67 70 126 126 130 126 25 0 3 -42 -47 -90 -30 -30 -83 -85 -116 -123 l-60 -67 1686 0 1686 0 0 455 0 454 -62 4 -63 3 63 2 62 2 0 200 0 200 -617 -1 c-368 -1 -583 -5 -532 -9 221 -20 467 -120 579 -235 19 -19 42 -35 53 -35 10 0 16 -4 12 -10 -3 -5 10 -31 30 -58 42 -59 78 -138 95 -211 26 -110 -3 -273 -65 -365 l-24 -35 32 -4 32 -4 -34 -1 c-26 -2 -47 -15 -95 -59 -209 -196 -538 -197 -725 -5 -31 33 -63 61 -71 65 -8 3 -10 6 -4 6 8 1 3 22 -12 58 -13 32 -23 67 -23 78 0 11 8 -5 18 -35 21 -65 41 -100 58 -100 7 0 10 -6 7 -13 -6 -17 90 -108 142 -135 100 -51 248 -68 359 -42 76 19 171 68 228 119 l51 46 -30 6 c-28 6 -28 7 7 8 33 1 41 7 68 49 113 177 98 397 -40 579 l-40 53 -82 2 -82 2 75 5 75 6 -63 47 c-158 118 -320 177 -546 198 -244 23 -575 -43 -806 -161 -68 -34 -72 -38 -43 -39 17 0 35 -5 38 -10 4 -7 -12 -8 -47 -5 -49 6 -59 3 -128 -37 l-75 -43 70 -6 70 -5 -83 -2 -83 -2 -121 -81 c-151 -101 -183 -93 -37 9 77 55 96 72 78 72 -13 0 -31 5 -39 11 -11 7 -2 8 30 4 40 -6 53 -2 120 37 l75 43 -55 6 -55 6 68 1 c50 2 81 9 117 27 197 100 465 178 665 195 49 4 -474 8 -1162 9 l-1253 1 0 -660z m425 510 c3 -5 4 -10 1 -10 -3 0 -8 5 -11 10 -3 6 -4 10 -1 10 3 0 8 -4 11 -10z m78 -40 c10 0 16 -4 13 -9 -4 -5 23 -30 59 -55 63 -44 69 -46 143 -48 l77 -2 -65 -3 -65 -4 25 -21 c24 -19 24 -19 -11 1 -20 12 -49 21 -65 22 -23 0 -25 2 -11 8 15 6 6 15 -52 54 -69 46 -73 47 -153 49 l-83 2 73 3 c67 4 72 5 60 20 -12 15 -11 15 12 0 13 -9 33 -17 43 -17z m-340 3 c-29 -2 -77 -2 -105 0 -29 2 -6 3 52 3 58 0 81 -1 53 -3z m630 -20 c-29 -2 -78 -2 -110 0 -32 2 -8 3 52 3 61 0 87 -1 58 -3z m310 -10 c-29 -2 -78 -2 -110 0 -32 2 -8 3 52 3 61 0 87 -1 58 -3z m310 -10 c-29 -2 -78 -2 -110 0 -32 2 -8 3 52 3 61 0 87 -1 58 -3z m620 -20 c-29 -2 -77 -2 -105 0 -29 2 -6 3 52 3 58 0 81 -1 53 -3z m310 -10 c-29 -2 -77 -2 -105 0 -29 2 -6 3 52 3 58 0 81 -1 53 -3z m310 -10 c-29 -2 -77 -2 -105 0 -29 2 -6 3 52 3 58 0 81 -1 53 -3z m310 -10 c-29 -2 -77 -2 -105 0 -29 2 -6 3 52 3 58 0 81 -1 53 -3z m-2825 -10 c-21 -2 -55 -2 -75 0 -21 2 -4 4 37 4 41 0 58 -2 38 -4z m295 -10 c-29 -2 -77 -2 -105 0 -29 2 -6 3 52 3 58 0 81 -1 53 -3z m3150 0 c-29 -2 -77 -2 -105 0 -29 2 -6 3 52 3 58 0 81 -1 53 -3z m200 -10 c-7 -2 -21 -2 -30 0 -10 3 -4 5 12 5 17 0 24 -2 18 -5z m-2735 -10 c-26 -2 -71 -2 -100 0 -29 2 -8 3 47 3 55 0 79 -1 53 -3z m325 -10 c-29 -2 -78 -2 -110 0 -32 2 -8 3 52 3 61 0 87 -1 58 -3z m620 -20 c-29 -2 -78 -2 -110 0 -32 2 -8 3 52 3 61 0 87 -1 58 -3z m-1233 -29 c0 -2 -9 0 -20 6 -11 6 -20 13 -20 16 0 2 9 0 20 -6 11 -6 20 -13 20 -16z m1543 19 c-29 -2 -77 -2 -105 0 -29 2 -6 3 52 3 58 0 81 -1 53 -3z m310 -10 c-29 -2 -77 -2 -105 0 -29 2 -6 3 52 3 58 0 81 -1 53 -3z m310 -10 c-29 -2 -77 -2 -105 0 -29 2 -6 3 52 3 58 0 81 -1 53 -3z m-2113 -29 c0 -2 -9 0 -20 6 -11 6 -20 13 -20 16 0 2 9 0 20 -6 11 -6 20 -13 20 -16z m2423 19 c-29 -2 -77 -2 -105 0 -29 2 -6 3 52 3 58 0 81 -1 53 -3z m310 -10 c-29 -2 -77 -2 -105 0 -29 2 -6 3 52 3 58 0 81 -1 53 -3z m-2683 -39 c0 -2 -9 0 -20 6 -11 6 -20 13 -20 16 0 2 9 0 20 -6 11 -6 20 -13 20 -16z m1803 -51 c-7 -2 -19 -2 -25 0 -7 3 -2 5 12 5 14 0 19 -2 13 -5z m97 -3 c11 -8 7 -9 -15 -4 -37 8 -45 14 -19 14 10 0 26 -5 34 -10z m-1775 -10 c3 -5 4 -10 1 -10 -3 0 -8 5 -11 10 -3 6 -4 10 -1 10 3 0 8 -4 11 -10z m1605 -10 c-54 -28 -101 -83 -121 -142 -10 -29 -18 -44 -18 -33 -1 25 31 93 57 122 24 27 91 73 106 73 6 -1 -5 -9 -24 -20z m280 -82 c0 -7 -6 -4 -12 7 -6 11 -20 31 -32 45 -11 14 -6 11 12 -7 17 -18 32 -38 32 -45z m-1749 26 l51 -25 24 22 c22 21 24 21 23 3 -1 -27 -13 -56 -23 -53 -4 1 -27 -14 -50 -33 -132 -108 -136 -111 -136 -91 0 11 31 45 76 83 l75 64 -50 23 c-28 12 -51 24 -51 27 0 10 9 7 61 -20z m1499 -38 c0 -2 -8 -10 -17 -17 -16 -13 -17 -12 -4 4 13 16 21 21 21 13z m131 -13 c13 -16 12 -17 -3 -4 -10 7 -18 15 -18 17 0 8 8 3 21 -13z m126 -10 c-4 -3 -7 0 -7 7 0 7 3 10 7 7 3 -4 3 -10 0 -14z m-1547 -33 c8 -5 11 -10 5 -10 -5 0 -17 5 -25 10 -8 5 -10 10 -5 10 6 0 17 -5 25 -10z m1247 -42 c-3 -7 -5 -2 -5 12 0 14 2 19 5 13 2 -7 2 -19 0 -25z m-1177 12 c8 -5 11 -10 5 -10 -5 0 -17 5 -25 10 -8 5 -10 10 -5 10 6 0 17 -5 25 -10z m1477 -27 c-4 -3 -7 0 -7 7 0 7 3 10 7 7 3 -4 3 -10 0 -14z m-430 -60 c-2 -16 -4 -5 -4 22 0 28 2 40 4 28 2 -13 2 -35 0 -50z m-930 40 c-4 -3 -10 -3 -14 0 -3 4 0 7 7 7 7 0 10 -3 7 -7z m30 -10 c-4 -3 -10 -3 -14 0 -3 4 0 7 7 7 7 0 10 -3 7 -7z m30 -10 c-4 -3 -10 -3 -14 0 -3 4 0 7 7 7 7 0 10 -3 7 -7z m1049 -25 l29 -33 -32 29 c-31 28 -38 36 -30 36 2 0 16 -15 33 -32z m202 -3 c-21 -19 -43 -35 -50 -35 -7 0 1 8 17 18 17 11 36 26 44 35 7 10 16 17 20 17 3 0 -11 -16 -31 -35z m-1221 18 c-4 -3 -10 -3 -14 0 -3 4 0 7 7 7 7 0 10 -3 7 -7z m30 -10 c-4 -3 -10 -3 -14 0 -3 4 0 7 7 7 7 0 10 -3 7 -7z m-727 -78 c-15 -15 -23 -16 -31 -8 -9 9 -7 17 12 32 31 25 47 5 19 -24z m857 39 c-3 -3 -12 -4 -19 -1 -8 3 -5 6 6 6 11 1 17 -2 13 -5z m910 -1 c-4 -3 -10 -3 -14 0 -3 4 0 7 7 7 7 0 10 -3 7 -7z m-880 -10 c-4 -3 -10 -3 -14 0 -3 4 0 7 7 7 7 0 10 -3 7 -7z m946 0 c-7 -2 -21 -2 -30 0 -10 3 -4 5 12 5 17 0 24 -2 18 -5z m-906 -9 c-3 -3 -12 -4 -19 -1 -8 3 -5 6 6 6 11 1 17 -2 13 -5z m110 -31 c-4 -3 -10 -3 -14 0 -3 4 0 7 7 7 7 0 10 -3 7 -7z m50 -9 c-3 -3 -12 -4 -19 -1 -8 3 -5 6 6 6 11 1 17 -2 13 -5z m40 -10 c-3 -3 -12 -4 -19 -1 -8 3 -5 6 6 6 11 1 17 -2 13 -5z m-1203 -22 c3 -5 -13 -26 -34 -47 -32 -32 -40 -35 -40 -20 0 10 12 32 27 47 28 29 38 34 47 20z m1349 -9 c-7 -2 -19 -2 -25 0 -7 3 -2 5 12 5 14 0 19 -2 13 -5z m54 -9 c-3 -3 -12 -4 -19 -1 -8 3 -5 6 6 6 11 1 17 -2 13 -5z m66 -11 c-7 -2 -21 -2 -30 0 -10 3 -4 5 12 5 17 0 24 -2 18 -5z m60 -10 c-7 -2 -19 -2 -25 0 -7 3 -2 5 12 5 14 0 19 -2 13 -5z m80 -10 c-7 -2 -21 -2 -30 0 -10 3 -4 5 12 5 17 0 24 -2 18 -5z m1040 0 c-7 -2 -21 -2 -30 0 -10 3 -4 5 12 5 17 0 24 -2 18 -5z m-840 -20 c-13 -2 -33 -2 -45 0 -13 2 -3 4 22 4 25 0 35 -2 23 -4z m420 -10 c-62 -2 -165 -2 -230 0 -65 1 -14 3 112 3 127 0 180 -2 118 -3z m-1820 -36 c14 -1 17 -11 17 -59 0 -52 -3 -60 -24 -69 -25 -12 -76 -5 -76 9 0 4 16 6 36 4 23 -3 39 0 44 9 13 20 2 29 -34 29 -37 0 -56 15 -56 45 0 31 21 47 50 40 14 -3 33 -7 43 -8z m561 7 c27 -10 18 -21 -14 -16 -38 5 -60 -12 -60 -47 0 -43 22 -65 58 -59 37 5 43 -9 8 -18 -51 -12 -92 34 -81 93 8 42 47 63 89 47z m-828 -79 c18 -78 27 -86 38 -33 27 136 45 141 75 22 12 -48 19 -89 16 -92 -8 -9 -11 -1 -32 83 l-20 80 -11 -42 c-7 -24 -17 -61 -23 -84 -5 -22 -15 -39 -22 -36 -6 2 -19 34 -28 71 -10 37 -20 70 -22 73 -5 5 -11 -15 -34 -106 -5 -19 -14 -36 -20 -38 -8 -3 -7 11 2 44 8 26 19 67 25 91 17 64 36 54 56 -33z m359 28 c0 -45 2 -49 35 -65 l35 -18 -42 3 -43 2 0 63 c0 34 3 62 8 62 4 0 7 -21 7 -47z m155 2 c7 -25 16 -48 21 -50 4 -3 15 18 24 45 9 28 22 49 28 47 10 -3 36 -85 37 -115 0 -31 -18 2 -24 43 -4 25 -11 45 -15 45 -4 0 -14 -21 -22 -47 -8 -25 -19 -48 -25 -50 -6 -2 -17 17 -24 42 -7 25 -16 48 -20 50 -5 3 -13 -18 -20 -45 -7 -28 -17 -50 -22 -50 -6 0 -7 8 -3 18 3 9 11 38 17 65 6 26 17 47 23 47 7 0 18 -20 25 -45z m180 -20 c0 -37 -4 -65 -10 -65 -6 0 -10 28 -10 65 0 37 4 65 10 65 6 0 10 -28 10 -65z m212 38 c5 -49 -3 -163 -13 -163 -5 0 -9 43 -9 95 0 52 4 95 9 95 5 0 11 -12 13 -27z m62 -8 l-27 -36 28 -29 c39 -40 19 -38 -22 2 l-33 32 32 33 c42 44 56 42 22 -2z m-274 -135 c0 -5 -4 -10 -10 -10 -5 0 -10 5 -10 10 0 6 5 10 10 10 6 0 10 -4 10 -10z"/>
</g>
<g id="layer103" fill="#606060" stroke="none">
<path d="M0 660 l0 -660 221 0 c192 0 220 2 209 14 -9 12 10 37 111 140 67 70 126 126 130 126 25 0 3 -42 -47 -90 -30 -30 -83 -85 -116 -123 l-60 -67 1686 0 1686 0 0 455 0 454 -62 4 -63 3 63 2 62 2 0 200 0 200 -617 -1 c-368 -1 -583 -5 -532 -9 221 -20 467 -120 579 -235 19 -19 42 -35 53 -35 10 0 16 -4 12 -10 -3 -5 10 -31 30 -58 90 -125 125 -285 94 -422 -13 -58 -69 -180 -83 -181 -6 -1 5 -5 24 -9 l35 -7 -34 -2 c-26 -1 -44 -11 -75 -43 -205 -209 -553 -218 -745 -20 -31 33 -63 61 -71 65 -8 3 -10 6 -4 6 8 1 3 22 -12 58 -13 32 -23 67 -23 78 0 11 8 -5 18 -35 21 -65 41 -100 58 -100 7 0 10 -6 7 -13 -6 -17 90 -108 142 -135 100 -51 248 -68 359 -42 76 19 171 68 228 119 l51 46 -30 6 -29 7 30 1 c37 2 43 6 77 56 110 162 93 392 -43 572 l-40 53 -82 2 -82 2 75 5 75 6 -63 47 c-158 118 -320 177 -546 198 -244 23 -575 -43 -806 -161 -68 -34 -72 -38 -43 -39 17 0 35 -5 38 -10 4 -7 -12 -8 -47 -5 -49 6 -59 3 -128 -37 l-75 -43 70 -6 70 -5 -83 -2 -83 -2 -105 -70 c-168 -112 -163 -84 -41 -248 102 -136 142 -211 135 -248 -2 -14 -14 -20 -46 -22 -41 -3 -43 -2 -33 17 30 55 -7 153 -118 309 l-59 83 -7 -78 c-8 -91 -29 -206 -50 -280 l-16 -53 -74 0 c-74 0 -105 16 -42 22 27 3 36 10 55 49 27 54 60 218 69 338 l6 87 -98 92 -99 92 46 0 c44 0 47 -2 74 -47 33 -58 143 -213 151 -213 3 0 3 6 0 14 -4 9 28 38 95 85 77 54 95 71 77 71 -13 0 -31 5 -39 11 -11 7 -2 8 30 4 40 -6 53 -2 120 37 l75 43 -55 6 -55 6 68 1 c50 2 81 9 117 27 197 100 465 178 665 195 49 4 -474 8 -1162 9 l-1253 1 0 -660z m425 510 c3 -5 4 -10 1 -10 -3 0 -8 5 -11 10 -3 6 -4 10 -1 10 3 0 8 -4 11 -10z m78 -40 c10 0 16 -4 13 -9 -4 -5 23 -30 59 -55 63 -44 69 -46 143 -48 l77 -2 -65 -3 -65 -4 25 -21 c24 -19 24 -19 -11 1 -20 12 -49 21 -65 22 -23 0 -25 2 -11 8 15 6 6 15 -52 54 -69 46 -73 47 -153 49 l-83 2 73 3 c67 4 72 5 60 20 -12 15 -11 15 12 0 13 -9 33 -17 43 -17z m-340 3 c-29 -2 -77 -2 -105 0 -29 2 -6 3 52 3 58 0 81 -1 53 -3z m630 -20 c-29 -2 -78 -2 -110 0 -32 2 -8 3 52 3 61 0 87 -1 58 -3z m310 -10 c-29 -2 -78 -2 -110 0 -32 2 -8 3 52 3 61 0 87 -1 58 -3z m84 -10 c-4 -3 -10 -3 -14 0 -3 4 0 7 7 7 7 0 10 -3 7 -7z m226 0 c-29 -2 -78 -2 -110 0 -32 2 -8 3 52 3 61 0 87 -1 58 -3z m620 -20 c-29 -2 -77 -2 -105 0 -29 2 -6 3 52 3 58 0 81 -1 53 -3z m310 -10 c-29 -2 -77 -2 -105 0 -29 2 -6 3 52 3 58 0 81 -1 53 -3z m310 -10 c-29 -2 -77 -2 -105 0 -29 2 -6 3 52 3 58 0 81 -1 53 -3z m310 -10 c-29 -2 -77 -2 -105 0 -29 2 -6 3 52 3 58 0 81 -1 53 -3z m-2825 -10 c-21 -2 -55 -2 -75 0 -21 2 -4 4 37 4 41 0 58 -2 38 -4z m295 -10 c-29 -2 -77 -2 -105 0 -29 2 -6 3 52 3 58 0 81 -1 53 -3z m3150 0 c-29 -2 -77 -2 -105 0 -29 2 -6 3 52 3 58 0 81 -1 53 -3z m200 -10 c-7 -2 -21 -2 -30 0 -10 3 -4 5 12 5 17 0 24 -2 18 -5z m-2735 -10 c-26 -2 -71 -2 -100 0 -29 2 -8 3 47 3 55 0 79 -1 53 -3z m325 -10 c-29 -2 -78 -2 -110 0 -32 2 -8 3 52 3 61 0 87 -1 58 -3z m620 -20 c-29 -2 -78 -2 -110 0 -32 2 -8 3 52 3 61 0 87 -1 58 -3z m-1233 -29 c0 -2 -9 0 -20 6 -11 6 -20 13 -20 16 0 2 9 0 20 -6 11 -6 20 -13 20 -16z m1543 19 c-29 -2 -77 -2 -105 0 -29 2 -6 3 52 3 58 0 81 -1 53 -3z m310 -10 c-29 -2 -77 -2 -105 0 -29 2 -6 3 52 3 58 0 81 -1 53 -3z m310 -10 c-29 -2 -77 -2 -105 0 -29 2 -6 3 52 3 58 0 81 -1 53 -3z m-2117 -31 c-4 -3 -14 2 -24 12 -16 18 -16 18 6 6 13 -6 21 -14 18 -18z m2427 21 c-29 -2 -77 -2 -105 0 -29 2 -6 3 52 3 58 0 81 -1 53 -3z m310 -10 c-29 -2 -77 -2 -105 0 -29 2 -6 3 52 3 58 0 81 -1 53 -3z m-2692 -30 c13 -15 12 -15 -8 -4 -24 12 -29 21 -14 21 5 0 15 -7 22 -17z m1340 -3 c117 -33 178 -151 134 -258 -9 -20 -53 -75 -99 -122 -89 -91 -113 -136 -101 -193 10 -44 50 -95 83 -104 37 -10 42 -10 87 0 59 12 75 31 75 89 0 35 4 48 12 46 14 -5 40 -105 33 -125 -6 -18 -113 -36 -183 -30 -77 6 -132 40 -162 101 -43 90 -11 179 97 273 33 29 68 68 77 86 49 104 -17 227 -120 227 -53 0 -109 -21 -122 -47 -5 -10 -7 -33 -5 -51 5 -29 3 -33 -13 -30 -13 2 -21 16 -26 48 -5 25 -7 52 -5 60 5 30 165 50 238 30z m-365 -42 c29 -32 34 -45 34 -86 0 -53 -22 -95 -84 -162 -51 -55 -66 -82 -66 -120 1 -58 47 -97 103 -86 45 9 57 24 57 72 0 47 16 60 25 19 3 -14 7 -36 10 -50 5 -22 0 -28 -29 -40 -46 -20 -120 -19 -161 1 -45 21 -68 59 -68 111 0 46 20 83 96 172 52 61 64 99 47 142 -14 32 -55 59 -90 59 -30 0 -78 -27 -91 -51 -6 -12 -8 -34 -5 -50 4 -21 2 -29 -9 -29 -16 0 -26 30 -28 81 -2 28 3 33 33 45 21 8 66 13 113 11 77 -2 80 -3 113 -39z m-1601 18 c-49 -16 -51 -26 -27 -161 l18 -99 80 -12 c125 -18 191 -61 233 -154 27 -59 28 -144 1 -187 -26 -44 -67 -53 -242 -53 -141 0 -196 11 -123 24 30 6 35 11 35 34 0 50 -98 573 -110 588 -7 7 -20 14 -29 14 -9 0 -23 5 -31 10 -10 7 26 9 110 9 115 -1 122 -2 85 -13z m430 -8 c2 -13 12 -63 21 -113 17 -95 35 -130 122 -233 54 -64 103 -92 127 -72 21 17 20 28 -19 245 -19 105 -33 191 -31 193 1 2 36 1 76 0 62 -3 69 -5 42 -12 -17 -5 -34 -14 -37 -21 -2 -7 9 -89 25 -181 16 -93 29 -187 29 -208 0 -71 -51 -95 -126 -60 -38 18 -113 99 -146 157 -23 39 -39 49 -32 20 2 -10 18 -97 35 -193 16 -96 33 -185 36 -198 5 -21 3 -22 -71 -22 -44 0 -76 4 -76 10 0 6 13 10 29 10 50 0 52 -26 -29 430 -22 124 -43 235 -45 248 -5 19 -1 22 30 22 28 0 36 -4 40 -22z m2540 -12 c61 -28 79 -56 19 -31 -42 17 -116 20 -145 5 -37 -20 -53 -69 -52 -155 3 -174 87 -300 189 -281 45 9 64 30 64 72 0 57 25 42 37 -22 10 -54 9 -56 -14 -65 -42 -16 -121 -10 -168 12 -96 45 -174 168 -183 288 -6 86 10 143 49 175 42 36 126 36 204 2z m-532 -13 c-7 -2 -19 -2 -25 0 -7 3 -2 5 12 5 14 0 19 -2 13 -5z m97 -3 c11 -8 7 -9 -15 -4 -37 8 -45 14 -19 14 10 0 26 -5 34 -10z m-1754 -27 c-6 -6 -36 9 -36 18 0 5 9 4 20 -3 10 -7 18 -14 16 -15z m1584 7 c-54 -28 -101 -83 -121 -142 -10 -29 -18 -44 -18 -33 -1 25 31 93 57 122 24 27 91 73 106 73 6 -1 -5 -9 -24 -20z m280 -82 c0 -7 -6 -4 -12 7 -6 11 -20 31 -32 45 -11 14 -6 11 12 -7 17 -18 32 -38 32 -45z m-1749 26 l51 -25 24 22 c22 21 24 21 23 3 -1 -27 -13 -56 -23 -54 -7 2 -87 -60 -155 -119 -29 -25 -31 -26 -31 -3 0 10 34 46 76 82 l75 64 -50 23 c-28 12 -51 24 -51 27 0 10 9 7 61 -20z m1499 -38 c0 -2 -8 -10 -17 -17 -16 -13 -17 -12 -4 4 13 16 21 21 21 13z m131 -13 c13 -16 12 -17 -3 -4 -10 7 -18 15 -18 17 0 8 8 3 21 -13z m126 -10 c-4 -3 -7 0 -7 7 0 7 3 10 7 7 3 -4 3 -10 0 -14z m-1524 -43 c5 -4 -3 -5 -17 -3 -15 3 -29 10 -32 15 -7 11 36 1 49 -12z m1224 -32 c-3 -7 -5 -2 -5 12 0 14 2 19 5 13 2 -7 2 -19 0 -25z m-1177 12 c8 -5 11 -10 5 -10 -5 0 -17 5 -25 10 -8 5 -10 10 -5 10 6 0 17 -5 25 -10z m1477 -27 c-4 -3 -7 0 -7 7 0 7 3 10 7 7 3 -4 3 -10 0 -14z m-430 -60 c-2 -16 -4 -5 -4 22 0 28 2 40 4 28 2 -13 2 -35 0 -50z m-930 40 c-4 -3 -10 -3 -14 0 -3 4 0 7 7 7 7 0 10 -3 7 -7z m77 -19 c26 -9 45 -18 43 -20 -2 -2 -28 5 -58 15 -30 11 -49 20 -43 20 6 1 32 -6 58 -15z m1032 -26 l29 -33 -32 29 c-31 28 -38 36 -30 36 2 0 16 -15 33 -32z m202 -3 c-21 -19 -43 -35 -50 -35 -7 0 1 8 17 18 17 11 36 26 44 35 7 10 16 17 20 17 3 0 -11 -16 -31 -35z m-1902 -40 c3 -20 -34 -51 -47 -38 -7 7 -3 18 13 36 23 26 30 27 34 2z m864 5 c11 -7 5 -8 -20 -4 -43 8 -51 14 -19 14 13 0 31 -5 39 -10z m887 3 c-4 -3 -10 -3 -14 0 -3 4 0 7 7 7 7 0 10 -3 7 -7z m66 -10 c-7 -2 -21 -2 -30 0 -10 3 -4 5 12 5 17 0 24 -2 18 -5z m-906 -9 c-3 -3 -12 -4 -19 -1 -8 3 -5 6 6 6 11 1 17 -2 13 -5z m110 -31 c-4 -3 -10 -3 -14 0 -3 4 0 7 7 7 7 0 10 -3 7 -7z m83 -13 c20 -6 21 -8 5 -8 -11 0 -31 4 -45 8 -20 6 -21 8 -5 8 11 0 31 -4 45 -8z m-1190 -32 c0 -7 -18 -28 -40 -46 -46 -38 -55 -22 -18 28 22 30 58 41 58 18z m1343 -5 c-7 -2 -19 -2 -25 0 -7 3 -2 5 12 5 14 0 19 -2 13 -5z m54 -9 c-3 -3 -12 -4 -19 -1 -8 3 -5 6 6 6 11 1 17 -2 13 -5z m66 -11 c-7 -2 -21 -2 -30 0 -10 3 -4 5 12 5 17 0 24 -2 18 -5z m60 -10 c-7 -2 -19 -2 -25 0 -7 3 -2 5 12 5 14 0 19 -2 13 -5z m80 -10 c-7 -2 -21 -2 -30 0 -10 3 -4 5 12 5 17 0 24 -2 18 -5z m1040 0 c-7 -2 -21 -2 -30 0 -10 3 -4 5 12 5 17 0 24 -2 18 -5z m-840 -20 c-13 -2 -33 -2 -45 0 -13 2 -3 4 22 4 25 0 35 -2 23 -4z m567 -3 c13 -8 13 -10 -2 -10 -9 0 -20 5 -23 10 -8 13 5 13 25 0z m37 3 c-4 -3 -10 -3 -14 0 -3 4 0 7 7 7 7 0 10 -3 7 -7z m-184 -10 c-62 -2 -165 -2 -230 0 -65 1 -14 3 112 3 127 0 180 -2 118 -3z m-1820 -36 c14 -1 17 -11 17 -59 0 -52 -3 -60 -24 -69 -25 -12 -76 -5 -76 9 0 4 16 6 36 4 23 -3 39 0 44 9 13 20 2 29 -34 29 -37 0 -56 15 -56 45 0 31 21 47 50 40 14 -3 33 -7 43 -8z m561 7 c27 -10 18 -21 -14 -16 -38 5 -60 -12 -60 -47 0 -43 22 -65 58 -59 37 5 43 -9 8 -18 -51 -12 -92 34 -81 93 8 42 47 63 89 47z m-828 -79 c18 -78 27 -86 38 -33 27 136 45 141 75 22 12 -48 19 -89 16 -92 -8 -9 -11 -1 -32 83 l-20 80 -11 -42 c-7 -24 -17 -61 -23 -84 -5 -22 -15 -39 -22 -36 -6 2 -19 34 -28 71 -10 37 -20 70 -22 73 -5 5 -11 -15 -34 -106 -5 -19 -14 -36 -20 -38 -8 -3 -7 11 2 44 8 26 19 67 25 91 17 64 36 54 56 -33z m359 28 c0 -45 2 -49 35 -65 l35 -18 -42 3 -43 2 0 63 c0 34 3 62 8 62 4 0 7 -21 7 -47z m155 2 c7 -25 16 -48 21 -50 4 -3 15 18 24 45 9 28 22 49 28 47 10 -3 36 -85 37 -115 0 -31 -18 2 -24 43 -4 25 -11 45 -15 45 -4 0 -14 -21 -22 -47 -8 -25 -19 -48 -25 -50 -6 -2 -17 17 -24 42 -7 25 -16 48 -20 50 -5 3 -13 -18 -20 -45 -7 -28 -17 -50 -22 -50 -6 0 -7 8 -3 18 3 9 11 38 17 65 6 26 17 47 23 47 7 0 18 -20 25 -45z m180 -20 c0 -37 -4 -65 -10 -65 -6 0 -10 28 -10 65 0 37 4 65 10 65 6 0 10 -28 10 -65z m212 38 c5 -49 -3 -163 -13 -163 -5 0 -9 43 -9 95 0 52 4 95 9 95 5 0 11 -12 13 -27z m62 -8 l-27 -36 28 -29 c39 -40 19 -38 -22 2 l-33 32 32 33 c42 44 56 42 22 -2z m-274 -135 c0 -5 -4 -10 -10 -10 -5 0 -10 5 -10 10 0 6 5 10 10 10 6 0 10 -4 10 -10z"/>
<path d="M1170 266 c0 -25 16 -36 56 -36 16 0 24 6 24 18 0 26 -20 42 -52 42 -23 0 -28 -4 -28 -24z"/>
</g>
<g id="layer104" fill="#a2a4ac" stroke="none">
<path d="M0 1230 l0 -90 93 0 c52 0 156 -3 233 -6 l139 -6 -30 27 c-32 28 -18 24 26 -7 23 -18 73 -21 629 -39 l603 -20 121 55 c198 90 392 147 571 166 39 4 -482 8 -1157 9 l-1228 1 0 -90z"/>
<path d="M2660 1314 c14 -2 59 -9 100 -15 167 -25 352 -105 473 -205 l68 -55 240 -9 c133 -5 244 -11 247 -15 6 -6 -289 2 -411 10 -38 3 -67 2 -65 -2 1 -5 17 -27 33 -50 l30 -42 101 -1 c55 0 156 -3 222 -7 l122 -6 0 201 0 202 -592 -1 c-326 -1 -582 -3 -568 -5z"/>
<path d="M2287 1270 c-126 -23 -317 -85 -432 -139 l-80 -38 65 -6 c81 -8 1411 -49 1416 -44 10 9 -142 111 -219 147 -150 71 -253 92 -462 96 -147 3 -200 0 -288 -16z"/>
<path d="M0 566 l0 -566 221 0 c192 0 220 2 209 14 -9 12 10 37 111 140 67 70 126 126 130 126 25 0 3 -42 -47 -90 -30 -30 -83 -85 -116 -123 l-60 -67 1686 0 1686 0 0 453 0 454 -142 6 c-79 4 -178 7 -221 7 l-77 0 19 -38 c40 -78 54 -150 49 -253 -4 -89 -9 -105 -46 -183 -47 -97 -50 -92 56 -77 28 4 52 4 52 0 0 -4 -36 -10 -80 -14 -80 -7 -80 -7 -137 -61 -32 -31 -87 -70 -127 -89 -217 -107 -446 -76 -604 81 l-62 62 -150 22 c-137 20 -222 37 -193 39 7 1 68 -8 135 -18 68 -11 142 -22 165 -25 l42 -6 -26 57 c-90 196 20 423 206 425 71 0 114 -17 155 -62 77 -85 66 -211 -22 -262 -43 -26 -51 -22 -11 5 48 32 82 101 74 152 -14 91 -90 155 -185 155 -91 0 -162 -46 -208 -134 -22 -43 -26 -64 -26 -131 0 -66 4 -90 28 -141 26 -58 30 -62 69 -69 23 -4 181 -9 352 -11 170 -3 311 -7 314 -9 8 -8 -510 -4 -599 5 -47 4 -87 6 -89 4 -13 -12 110 -110 176 -141 64 -31 87 -37 166 -41 53 -2 117 1 150 8 75 15 182 69 243 122 l48 43 -45 6 -44 6 47 1 c41 2 50 7 72 35 14 18 38 60 53 92 26 55 28 70 28 180 0 111 -2 125 -30 190 -30 69 -31 70 -75 77 -25 4 -428 19 -897 33 l-852 27 -103 -71 c-57 -39 -114 -79 -127 -89 l-23 -19 105 -140 c102 -137 143 -212 135 -249 -2 -14 -14 -20 -46 -22 -41 -3 -43 -2 -33 17 30 55 -7 153 -118 309 l-59 83 -7 -78 c-8 -91 -29 -206 -50 -280 l-16 -53 -74 0 c-74 0 -105 16 -42 22 27 3 36 10 55 49 27 54 60 218 69 338 l6 87 -98 92 -99 92 46 0 c44 0 47 -2 74 -47 31 -55 143 -213 150 -213 3 0 4 7 2 17 -2 11 28 38 94 83 l98 67 -38 7 c-20 3 -90 6 -154 6 -64 0 -119 3 -121 8 -3 4 72 4 166 1 l171 -5 70 40 70 41 -159 8 c-203 9 -999 35 -1003 32 -1 -1 26 -22 60 -46 l63 -44 235 -12 235 -12 -220 5 -220 4 30 -20 c17 -12 58 -37 92 -56 66 -38 99 -68 42 -38 -19 9 -69 39 -111 66 l-78 48 -302 11 c-167 6 -305 13 -307 15 -6 6 109 4 359 -5 118 -5 216 -7 218 -6 2 1 -26 23 -60 48 l-63 45 -243 7 -242 8 0 -567z m2191 324 c117 -33 178 -151 134 -258 -9 -20 -53 -75 -99 -122 -89 -91 -113 -136 -101 -193 10 -44 50 -95 83 -104 37 -10 42 -10 87 0 59 12 75 31 75 89 0 35 4 48 12 46 14 -5 40 -105 33 -125 -6 -18 -113 -36 -183 -30 -77 6 -132 40 -162 101 -43 90 -11 179 97 273 33 29 68 68 77 86 49 104 -17 227 -120 227 -53 0 -109 -21 -122 -47 -5 -10 -7 -33 -5 -51 5 -29 3 -33 -13 -30 -13 2 -21 16 -26 48 -5 25 -7 52 -5 60 5 30 165 50 238 30z m-365 -42 c29 -32 34 -45 34 -86 0 -53 -22 -95 -84 -162 -51 -55 -66 -82 -66 -120 1 -58 47 -97 103 -86 45 9 57 24 57 72 0 44 14 60 24 27 21 -75 19 -83 -18 -98 -46 -20 -119 -19 -161 1 -45 21 -68 59 -68 111 0 46 20 83 96 172 52 61 64 99 47 142 -14 32 -55 59 -90 59 -30 0 -78 -27 -91 -51 -6 -12 -8 -34 -5 -50 4 -21 2 -29 -9 -29 -16 0 -26 30 -28 81 -2 28 3 33 33 45 21 8 66 13 113 11 77 -2 80 -3 113 -39z m-1601 18 c-49 -16 -51 -26 -27 -161 l18 -99 80 -12 c125 -18 191 -61 233 -154 27 -59 28 -144 1 -187 -26 -44 -67 -53 -242 -53 -141 0 -196 11 -123 24 30 6 35 11 35 34 0 50 -98 573 -110 588 -7 7 -20 14 -29 14 -9 0 -23 5 -31 10 -10 7 26 9 110 9 115 -1 122 -2 85 -13z m430 -8 c2 -13 12 -63 21 -113 17 -95 35 -130 122 -233 54 -64 103 -92 127 -72 21 17 20 28 -19 245 -19 105 -33 191 -31 193 1 2 36 1 76 0 62 -3 69 -5 42 -12 -17 -5 -34 -14 -37 -21 -2 -7 9 -89 25 -181 16 -93 29 -187 29 -208 0 -71 -51 -95 -126 -60 -38 18 -113 99 -146 157 -23 39 -39 49 -32 20 2 -10 18 -97 35 -193 16 -96 33 -185 36 -198 5 -21 3 -22 -71 -22 -44 0 -76 4 -76 10 0 6 13 10 29 10 50 0 52 -26 -29 430 -22 124 -43 235 -45 248 -5 19 -1 22 30 22 28 0 36 -4 40 -22z m2540 -12 c30 -14 55 -30 55 -35 0 -14 -1 -14 -43 4 -42 17 -110 20 -138 5 -37 -20 -53 -69 -52 -155 3 -174 87 -300 189 -281 45 9 64 30 64 72 0 57 25 42 37 -22 10 -54 9 -56 -14 -65 -42 -16 -124 -10 -169 11 -95 46 -173 171 -182 289 -6 86 10 143 49 175 42 36 126 36 204 2z m-1999 -95 c17 16 24 18 24 8 0 -25 -12 -59 -19 -55 -4 3 -47 -29 -95 -70 -49 -41 -90 -74 -92 -74 -2 0 -4 9 -4 19 0 12 29 44 75 82 l76 62 -96 45 c-52 25 -95 49 -95 54 0 4 46 -15 101 -43 l101 -50 24 22z m1491 -17 c-3 -3 -12 -4 -19 -1 -8 3 -5 6 6 6 11 1 17 -2 13 -5z m-63 -23 c-18 -11 -34 -25 -37 -33 -3 -8 -6 -9 -6 -1 -1 13 46 53 63 53 6 0 -3 -9 -20 -19z m117 -2 l24 -20 -30 17 c-39 24 -40 24 -28 24 6 0 21 -9 34 -21z m26 -46 c-4 -3 -7 0 -7 7 0 7 3 10 7 7 3 -4 3 -10 0 -14z m-1387 -25 c23 -12 27 -16 11 -12 -37 10 -91 34 -91 40 0 8 40 -6 80 -28z m1224 -73 c9 -14 31 -35 49 -45 18 -11 27 -20 20 -20 -18 0 -72 49 -88 81 -8 15 -14 41 -14 56 1 24 2 23 8 -9 4 -20 15 -48 25 -63z m73 58 c-4 -3 -7 0 -7 7 0 7 3 10 7 7 3 -4 3 -10 0 -14z m-1041 -80 c-6 -7 -134 36 -141 47 -3 5 29 -3 70 -17 42 -14 74 -27 71 -30z m1097 50 c-7 -2 -19 -2 -25 0 -7 3 -2 5 12 5 14 0 19 -2 13 -5z m-1803 -97 c0 -21 -35 -47 -54 -40 -15 6 -14 10 10 35 27 28 44 30 44 5z m925 -19 c7 -7 5 -8 -5 -5 -8 3 -39 11 -67 18 -29 8 -53 17 -53 21 0 10 112 -21 125 -34z m893 16 c-10 -2 -28 -2 -40 0 -13 2 -5 4 17 4 22 1 32 -1 23 -4z m-743 -48 c28 -7 41 -13 30 -14 -11 0 -42 6 -70 13 -63 18 -28 19 40 1z m-1165 -37 c0 -7 -18 -28 -40 -46 -38 -32 -40 -32 -40 -11 0 13 10 33 22 46 23 25 58 31 58 11z m138 -180 l19 -83 12 43 c6 23 16 60 21 82 17 64 35 50 59 -45 24 -95 25 -105 12 -105 -5 0 -17 34 -27 75 -10 41 -19 73 -22 71 -2 -3 -12 -35 -21 -73 -24 -95 -42 -95 -65 2 -10 41 -19 75 -21 75 -2 0 -11 -34 -21 -75 -10 -44 -23 -75 -30 -75 -9 0 -6 25 12 91 13 50 24 92 24 95 0 2 6 4 14 4 10 0 21 -27 34 -82z m290 27 c4 -66 -17 -97 -65 -93 -20 2 -38 8 -40 14 -2 6 10 8 31 6 19 -2 37 1 41 8 9 15 -12 30 -42 30 -41 0 -62 59 -29 82 6 4 31 6 56 4 l45 -3 3 -48z m74 -2 c3 -55 4 -58 31 -61 15 -2 27 -9 27 -18 0 -17 -1 -17 -34 -4 -17 6 -26 6 -26 0 0 -6 -4 -10 -10 -10 -6 0 -10 32 -10 75 0 88 18 102 22 18z m152 -3 l20 -54 19 57 c10 31 23 57 28 57 4 0 16 -26 25 -57 8 -32 18 -66 21 -77 3 -12 1 -17 -8 -14 -8 3 -18 26 -23 51 -4 26 -11 47 -15 47 -4 0 -14 -21 -22 -46 -8 -25 -18 -46 -24 -46 -5 0 -17 21 -26 46 -8 25 -18 48 -21 51 -2 3 -10 -20 -17 -50 -7 -30 -17 -55 -22 -55 -12 0 -12 5 8 83 10 37 22 66 28 64 5 -2 19 -28 29 -57z m176 -15 c0 -43 -4 -75 -10 -75 -6 0 -10 32 -10 75 0 43 4 75 10 75 6 0 10 -32 10 -75z m147 59 c2 -7 -8 -9 -28 -6 -24 3 -36 0 -46 -14 -32 -44 -2 -100 49 -90 21 4 28 2 26 -7 -8 -22 -65 -20 -87 2 -48 48 -13 135 51 129 17 -2 33 -8 35 -14z m63 -8 c0 -39 19 -41 56 -5 45 43 57 29 14 -16 l-34 -35 34 -35 c46 -47 17 -46 -32 2 l-38 37 0 -62 c0 -35 -4 -62 -10 -62 -6 0 -10 40 -10 100 0 60 4 100 10 100 6 0 10 -11 10 -24z m-210 -161 c0 -8 -4 -15 -10 -15 -5 0 -10 7 -10 15 0 8 5 15 10 15 6 0 10 -7 10 -15z"/>
<path d="M228 573 c-3 -4 9 -84 26 -178 l31 -170 35 -3 c50 -5 106 14 129 45 55 69 0 243 -91 286 -40 19 -124 32 -130 20z"/>
<path d="M1173 274 c-7 -19 21 -44 49 -44 12 0 18 8 18 24 0 35 -55 51 -67 20z"/>
<path d="M1670 1038 c-41 -23 -70 -43 -65 -44 13 -4 1552 -54 1658 -54 86 0 86 1 35 61 l-23 27 -680 21 c-374 11 -718 23 -765 26 -85 5 -85 5 -160 -37z"/>
</g>
<g id="layer105" fill="#fefefe" stroke="none">
<path d="M0 1236 l0 -84 63 -6 c34 -3 138 -7 231 -10 l168 -5 -33 25 c-18 13 -27 24 -20 24 7 0 27 -11 44 -24 l32 -24 609 -20 609 -21 89 45 c171 84 388 152 553 173 43 5 -391 9 -1137 10 l-1208 1 0 -84z"/>
<path d="M2753 1304 c180 -28 378 -115 491 -216 l54 -48 241 -6 c133 -4 244 -11 247 -16 4 -6 -88 -7 -231 -2 -263 8 -249 12 -197 -54 19 -25 33 -26 325 -36 l137 -5 0 199 0 200 -577 -1 c-529 -1 -570 -2 -490 -15z"/>
<path d="M2395 1283 c-93 -12 -212 -37 -300 -64 -102 -31 -319 -118 -312 -125 4 -5 124 -9 887 -34 316 -10 577 -17 578 -15 9 9 -122 99 -193 134 -102 50 -195 78 -315 96 -87 14 -271 18 -345 8z"/>
<path d="M0 567 l0 -567 221 0 c192 0 220 2 209 14 -9 12 10 37 111 140 67 70 126 126 130 126 25 0 3 -42 -47 -90 -30 -30 -83 -85 -116 -123 l-60 -67 1686 0 1686 0 0 453 0 454 -212 6 c-116 4 -213 6 -214 4 -2 -2 7 -30 21 -62 59 -147 54 -280 -14 -418 l-39 -78 39 5 c21 3 57 9 79 12 23 3 40 2 40 -4 0 -9 -78 -22 -140 -22 -28 0 -41 -7 -63 -35 -72 -90 -230 -164 -367 -172 -158 -10 -292 40 -393 145 l-55 59 -129 17 c-120 16 -248 43 -212 45 9 1 74 -8 145 -19 71 -11 141 -20 156 -20 l27 0 -21 48 c-29 65 -36 183 -14 249 50 150 214 223 338 151 150 -89 116 -310 -51 -326 -129 -12 -220 123 -142 210 25 28 36 33 74 33 51 0 91 -28 102 -72 9 -36 -18 -73 -53 -73 -35 0 -52 17 -51 50 l1 25 7 -24 c15 -54 73 -52 79 2 5 38 -13 64 -53 77 -28 9 -40 8 -69 -5 -46 -22 -63 -63 -47 -115 35 -116 210 -129 266 -20 23 45 19 116 -10 166 -72 123 -265 106 -350 -31 -28 -46 -30 -54 -30 -149 0 -87 4 -108 25 -151 24 -48 27 -50 75 -57 28 -5 185 -10 350 -13 165 -4 301 -7 302 -9 11 -10 -315 -14 -476 -6 -107 6 -196 8 -199 5 -3 -3 14 -23 37 -45 130 -124 324 -161 509 -97 66 23 180 94 211 131 12 14 8 16 -30 18 l-44 1 50 6 c43 5 52 11 76 46 90 132 103 310 32 467 -14 32 -26 58 -27 58 0 0 -403 14 -895 30 l-894 29 -61 -41 c-53 -37 -175 -124 -184 -133 -2 -1 41 -60 94 -131 101 -133 148 -218 142 -256 -2 -19 -10 -24 -46 -26 -41 -3 -43 -2 -33 17 6 11 11 35 11 54 0 44 -62 163 -82 159 -17 -3 -112 37 -105 44 2 3 28 -4 56 -15 28 -10 51 -17 51 -15 0 2 -24 40 -54 84 l-54 80 -7 -78 c-8 -90 -29 -205 -50 -279 l-16 -53 -74 0 c-74 0 -105 16 -42 22 27 3 36 10 55 49 27 54 60 218 69 338 l6 87 -98 92 -99 92 46 0 c44 0 47 -2 74 -47 33 -58 143 -213 151 -213 3 0 3 6 0 14 -7 18 10 33 113 101 47 30 78 55 70 55 -139 4 -297 13 -303 19 -7 7 132 5 260 -4 69 -4 73 -4 144 38 l73 42 -284 11 c-157 6 -418 14 -580 18 l-295 7 67 -45 67 -46 138 -1 c76 -1 179 -5 228 -9 68 -6 37 -8 -127 -6 l-218 3 87 -53 c47 -29 91 -58 97 -65 17 -17 -71 29 -146 77 l-67 43 -243 7 c-134 3 -272 10 -308 15 -37 4 59 6 225 3 l290 -6 -64 46 -65 46 -110 0 c-61 0 -168 3 -238 7 l-128 6 0 -566z m1770 317 c16 -3 43 -21 60 -40 24 -28 30 -43 30 -83 0 -52 -22 -94 -84 -161 -51 -55 -66 -82 -66 -120 0 -52 29 -80 84 -80 57 0 81 25 72 75 -6 31 -4 35 14 35 15 0 20 -6 20 -26 0 -14 4 -23 8 -20 4 3 39 -4 78 -15 49 -13 58 -18 29 -15 -22 3 -55 8 -72 11 -30 7 -33 6 -33 -18 0 -21 -7 -28 -37 -38 -82 -27 -174 -5 -209 49 -10 15 -17 45 -17 69 0 46 20 83 96 172 54 63 66 105 43 148 -46 90 -202 48 -182 -48 4 -21 2 -29 -9 -29 -14 0 -20 13 -30 71 -8 42 -6 44 66 63 51 14 67 14 139 0z m421 6 c117 -33 178 -151 134 -258 -9 -20 -53 -75 -99 -122 -89 -91 -113 -136 -101 -193 17 -79 87 -122 169 -105 62 13 79 34 74 90 -4 40 -2 48 12 48 12 0 19 -15 28 -61 6 -34 9 -66 6 -70 -9 -15 -117 -31 -180 -27 -77 5 -134 40 -164 102 -43 90 -11 179 97 273 33 29 68 68 77 86 49 104 -17 227 -120 227 -53 0 -109 -21 -122 -47 -5 -10 -7 -33 -5 -51 5 -29 3 -33 -13 -30 -13 2 -21 16 -26 48 -5 25 -7 52 -5 60 5 30 165 50 238 30z m-1931 -17 c0 -5 -14 -9 -32 -10 -52 -4 -54 -12 -32 -140 l19 -118 65 -6 c74 -6 151 -37 194 -77 70 -66 98 -200 56 -269 -26 -44 -67 -53 -242 -53 -141 0 -196 11 -123 24 30 6 35 11 35 34 0 50 -98 573 -110 588 -7 7 -20 14 -29 14 -9 0 -23 5 -31 10 -10 7 25 10 108 10 67 0 122 -3 122 -7z m395 -15 c2 -13 12 -63 21 -113 17 -96 36 -132 126 -236 54 -64 99 -89 123 -69 21 17 20 29 -19 245 -19 105 -33 191 -31 193 1 2 36 1 76 0 62 -3 69 -5 42 -12 -17 -5 -34 -14 -37 -21 -2 -7 9 -89 25 -181 16 -93 29 -187 29 -208 0 -71 -51 -95 -125 -60 -41 19 -113 94 -145 152 -24 43 -41 56 -34 25 2 -10 18 -97 35 -193 16 -96 33 -185 36 -198 5 -21 3 -22 -71 -22 -44 0 -76 4 -76 10 0 6 13 10 29 10 50 0 52 -26 -29 430 -22 124 -43 235 -45 248 -5 19 -1 22 30 22 28 0 36 -4 40 -22z m2528 -4 c44 -15 75 -39 65 -49 -3 -3 -24 2 -48 10 -128 45 -185 -2 -183 -150 3 -174 90 -303 192 -280 44 9 61 30 61 76 0 64 25 49 36 -22 10 -59 10 -61 -13 -70 -42 -16 -124 -10 -169 11 -95 46 -173 171 -182 289 -6 86 10 143 49 175 25 21 41 26 88 26 32 0 78 -7 104 -16z m-1987 -103 c17 16 24 18 24 8 0 -25 -12 -59 -19 -55 -4 3 -47 -29 -95 -70 -49 -41 -90 -74 -92 -74 -2 0 -4 9 -4 19 0 12 29 44 75 82 l76 62 -96 45 c-52 25 -95 49 -95 54 0 4 46 -15 101 -43 l101 -50 24 22z m387 -183 c32 -11 56 -22 53 -25 -7 -7 -146 40 -146 50 0 5 8 6 18 2 9 -4 43 -16 75 -27z m-653 -72 c0 -21 -35 -47 -54 -40 -15 6 -14 10 10 35 27 28 44 30 44 5z m925 -17 c5 -5 5 -9 0 -9 -19 0 -125 35 -125 41 0 9 112 -20 125 -32z m-1015 -71 c0 -7 -18 -28 -40 -46 -38 -32 -40 -32 -40 -11 0 13 10 33 22 46 23 25 58 31 58 11z m130 -135 c5 -21 13 -55 17 -77 7 -46 16 -34 34 48 11 52 30 78 45 63 4 -4 53 -180 54 -194 0 -2 -6 -3 -14 -3 -10 0 -20 25 -32 75 -10 41 -19 73 -22 71 -2 -3 -12 -35 -21 -73 -22 -88 -40 -89 -63 -5 -9 35 -19 69 -21 75 -2 7 -12 -21 -21 -61 -17 -66 -30 -91 -42 -79 -4 4 27 143 41 185 9 25 34 11 45 -25z m300 -24 c0 -72 -16 -91 -73 -87 -56 4 -62 28 -6 25 55 -3 62 18 9 27 -48 8 -70 39 -51 75 10 18 20 21 66 20 l55 -2 0 -58z m70 7 c0 -56 8 -66 51 -66 10 0 19 -5 19 -10 0 -17 -27 -22 -49 -10 -14 7 -21 7 -21 0 0 -5 -7 -10 -15 -10 -12 0 -15 15 -15 75 0 60 3 75 15 75 11 0 15 -13 15 -54z m151 12 c17 -65 21 -66 39 -12 27 79 47 61 74 -64 6 -25 4 -32 -8 -32 -10 0 -17 14 -22 45 -3 25 -10 45 -14 45 -4 0 -13 -20 -20 -45 -16 -57 -36 -58 -51 -2 -17 64 -23 66 -34 13 -10 -47 -35 -76 -35 -42 0 36 34 136 46 136 7 0 18 -19 25 -42z m179 -34 c0 -56 -3 -75 -12 -72 -8 3 -14 27 -16 63 -3 62 1 85 18 85 6 0 10 -30 10 -76z m158 54 c3 -15 -1 -15 -27 -5 -26 9 -34 9 -47 -5 -9 -9 -16 -28 -16 -43 0 -15 7 -34 16 -43 13 -14 21 -14 46 -5 24 9 30 9 30 -2 0 -28 -63 -34 -98 -9 -28 19 -31 88 -5 116 22 25 96 22 101 -4z m52 -2 c0 -39 20 -42 47 -7 14 17 34 31 46 31 19 0 16 -5 -18 -40 l-39 -40 34 -35 c46 -47 17 -46 -32 2 l-38 37 0 -67 c0 -38 -4 -67 -10 -67 -6 0 -10 42 -10 105 0 63 4 105 10 105 6 0 10 -11 10 -24z m-210 -161 c0 -8 -7 -15 -15 -15 -8 0 -15 7 -15 15 0 8 7 15 15 15 8 0 15 -7 15 -15z"/>
<path d="M227 573 c-2 -5 10 -84 27 -178 l31 -170 42 -3 c52 -4 106 18 129 52 39 61 -4 215 -74 264 -41 29 -145 52 -155 35z"/>
<path d="M1173 274 c-7 -19 4 -29 40 -38 24 -6 27 -3 27 18 0 35 -55 52 -67 20z"/>
<path d="M1670 1038 l-75 -43 45 -2 c145 -8 1673 -54 1686 -51 13 2 7 13 -22 44 l-39 42 -715 22 c-393 12 -735 24 -760 26 -39 4 -55 -1 -120 -38z"/>
</g>


</svg>